<?xml version="1.0" encoding="UTF-8" ?>
<!DOCTYPE svg PUBLIC "-//W3C//DTD SVG 1.1//EN" "http://www.w3.org/Graphics/SVG/1.1/DTD/svg11.dtd">
<svg width="612pt" height="612pt" viewBox="0 0 612 612" version="1.1" xmlns="http://www.w3.org/2000/svg">
<g id="#f2f2f2ff">
<path fill="#f2f2f2" stroke="#f2f2f2" stroke-width="0.09375" opacity="1.00" d=" M 0.00 0.00 L 612.00 0.00 L 612.00 1.17 C 559.34 1.59 506.67 1.23 454.00 1.35 C 310.67 1.35 167.34 1.35 24.00 1.35 C 16.00 1.30 7.99 1.56 0.00 1.10 L 0.00 0.00 Z" />
<path fill="#f2f2f2" stroke="#f2f2f2" stroke-width="0.09375" opacity="1.00" d=" M 405.37 182.46 C 409.33 181.22 414.39 183.15 415.44 187.41 C 419.43 201.29 422.71 215.35 426.77 229.20 C 428.31 234.13 428.80 239.38 430.91 244.12 C 432.20 244.60 433.59 244.67 434.96 244.72 C 444.32 244.81 453.70 244.48 463.05 244.78 C 467.31 244.81 471.21 248.55 470.68 252.93 C 470.60 310.61 470.72 368.30 470.62 425.97 C 470.46 430.78 465.28 433.12 461.02 432.76 C 375.35 432.78 289.67 432.76 204.00 432.77 C 200.46 432.73 196.88 433.11 193.37 432.53 C 190.09 431.84 188.46 428.48 187.60 425.56 C 173.80 373.12 159.48 320.81 145.69 268.37 C 144.79 264.45 142.85 260.53 143.48 256.43 C 144.25 252.62 148.21 251.21 151.53 250.38 C 170.98 245.19 190.36 239.76 209.87 234.78 C 229.70 229.07 249.83 224.47 269.62 218.62 C 314.92 206.79 360.09 194.38 405.37 182.46 M 375.63 206.67 C 367.09 208.63 358.77 211.39 350.26 213.44 C 329.67 219.20 308.89 224.20 288.34 230.09 C 276.19 233.43 263.95 236.42 251.80 239.77 C 247.03 241.13 242.09 242.02 237.55 244.10 C 239.31 244.60 241.13 244.80 242.96 244.76 C 271.99 244.69 301.02 244.63 330.05 244.75 C 331.20 244.57 333.04 244.98 333.54 243.53 C 335.24 240.06 336.57 236.21 339.64 233.64 C 344.81 228.62 353.06 227.90 359.59 230.42 C 365.38 232.89 368.99 238.58 370.73 244.42 C 373.47 244.74 376.24 244.87 379.01 244.75 C 389.92 244.46 400.84 244.98 411.75 244.57 C 412.14 239.36 409.85 234.49 408.55 229.55 C 406.23 221.99 404.87 214.15 402.27 206.67 C 401.30 203.66 398.28 201.41 395.05 201.96 C 388.39 202.60 382.13 205.21 375.63 206.67 M 174.22 260.42 C 171.31 261.17 168.18 261.86 165.86 263.91 C 163.79 266.52 164.03 270.13 164.79 273.20 C 170.62 294.20 176.10 315.30 181.76 336.36 C 184.40 344.22 185.13 352.67 188.76 360.20 C 189.35 353.81 188.99 347.39 189.17 340.99 C 189.26 315.33 189.15 289.66 189.23 264.00 C 189.21 261.66 189.02 259.32 188.85 257.00 C 183.90 257.82 179.13 259.40 174.22 260.42 M 212.37 260.57 C 208.69 261.45 205.94 265.16 206.32 268.97 C 206.39 312.31 206.33 355.66 206.35 399.00 C 206.42 402.85 206.00 406.74 206.59 410.56 C 207.83 414.47 212.05 416.47 215.97 416.05 C 291.99 416.05 368.02 416.09 444.05 416.03 C 448.58 416.58 453.55 412.95 453.00 408.09 C 452.97 361.37 453.05 314.64 452.96 267.93 C 453.56 263.09 448.42 259.81 444.05 260.29 C 370.04 260.21 296.02 260.29 222.01 260.25 C 218.80 260.27 215.55 260.06 212.37 260.57 Z" />
<path fill="#f2f2f2" stroke="#f2f2f2" stroke-width="0.09375" opacity="1.00" d=" M 390.36 275.46 C 397.06 274.18 404.53 276.85 408.62 282.39 C 414.74 290.18 413.41 303.34 404.81 308.82 C 399.34 313.27 391.40 313.51 385.13 310.75 C 379.74 307.74 375.50 302.23 375.09 295.93 C 373.83 286.49 380.94 276.93 390.36 275.46 Z" />
<path fill="#f2f2f2" stroke="#f2f2f2" stroke-width="0.09375" opacity="1.00" d=" M 253.08 316.05 C 254.77 312.63 259.55 312.45 262.22 314.79 C 275.17 324.43 287.58 334.78 300.34 344.66 C 303.25 346.96 307.49 349.76 311.06 347.08 C 315.53 343.26 316.54 336.85 320.77 332.81 C 323.24 331.24 326.63 331.38 329.07 332.96 C 362.22 355.43 395.52 377.72 428.51 400.43 C 428.59 401.02 428.75 402.18 428.83 402.76 C 425.92 403.25 422.99 403.67 420.04 403.66 C 362.36 403.64 304.68 403.66 247.00 403.65 C 240.01 403.58 232.98 403.95 226.03 403.03 C 222.97 402.71 220.53 399.86 220.25 396.87 C 219.80 391.94 219.87 386.98 220.21 382.05 C 220.70 375.77 223.58 370.02 226.57 364.59 C 235.74 348.59 243.95 332.06 253.08 316.05 Z" />
</g>
<g id="#ccccccff">
<path fill="#cccccc" stroke="#cccccc" stroke-width="0.09375" opacity="1.00" d=" M 0.00 1.10 C 7.99 1.56 16.00 1.30 24.00 1.35 C 167.34 1.35 310.67 1.35 454.00 1.35 C 506.67 1.23 559.34 1.59 612.00 1.17 L 612.00 612.00 L 0.00 612.00 L 0.00 1.10 M 405.37 182.46 C 360.09 194.38 314.92 206.79 269.62 218.62 C 249.83 224.47 229.70 229.07 209.87 234.78 C 190.36 239.76 170.98 245.19 151.53 250.38 C 148.21 251.21 144.25 252.62 143.48 256.43 C 142.85 260.53 144.79 264.45 145.69 268.37 C 159.48 320.81 173.80 373.12 187.60 425.56 C 188.46 428.48 190.09 431.84 193.37 432.53 C 196.88 433.11 200.46 432.73 204.00 432.77 C 289.67 432.76 375.35 432.78 461.02 432.76 C 465.28 433.12 470.46 430.78 470.62 425.97 C 470.72 368.30 470.60 310.61 470.68 252.93 C 471.21 248.55 467.31 244.81 463.05 244.78 C 453.70 244.48 444.32 244.81 434.96 244.72 C 433.59 244.67 432.20 244.60 430.91 244.12 C 428.80 239.38 428.31 234.13 426.77 229.20 C 422.71 215.35 419.43 201.29 415.44 187.41 C 414.39 183.15 409.33 181.22 405.37 182.46 Z" />
<path fill="#cccccc" stroke="#cccccc" stroke-width="0.09375" opacity="1.00" d=" M 375.63 206.67 C 382.13 205.21 388.39 202.60 395.05 201.96 C 398.28 201.41 401.30 203.66 402.27 206.67 C 404.87 214.15 406.23 221.99 408.55 229.55 C 409.85 234.49 412.14 239.36 411.75 244.57 C 400.84 244.98 389.92 244.46 379.01 244.75 C 376.24 244.87 373.47 244.74 370.73 244.42 C 368.99 238.58 365.38 232.89 359.59 230.42 C 353.06 227.90 344.81 228.62 339.64 233.64 C 336.57 236.21 335.24 240.06 333.54 243.53 C 333.04 244.98 331.20 244.57 330.05 244.75 C 301.02 244.63 271.99 244.69 242.96 244.76 C 241.13 244.80 239.31 244.60 237.55 244.10 C 242.09 242.02 247.03 241.13 251.80 239.77 C 263.95 236.42 276.19 233.43 288.34 230.09 C 308.89 224.20 329.67 219.20 350.26 213.44 C 358.77 211.39 367.09 208.63 375.63 206.67 Z" />
<path fill="#cccccc" stroke="#cccccc" stroke-width="0.09375" opacity="1.00" d=" M 174.22 260.42 C 179.13 259.40 183.90 257.82 188.85 257.00 C 189.02 259.32 189.21 261.66 189.23 264.00 C 189.15 289.66 189.26 315.33 189.17 340.99 C 188.99 347.39 189.35 353.81 188.76 360.20 C 185.13 352.67 184.40 344.22 181.76 336.36 C 176.10 315.30 170.62 294.20 164.79 273.20 C 164.03 270.13 163.79 266.52 165.86 263.91 C 168.18 261.86 171.31 261.17 174.22 260.42 Z" />
<path fill="#cccccc" stroke="#cccccc" stroke-width="0.09375" opacity="1.00" d=" M 212.37 260.57 C 215.55 260.06 218.80 260.27 222.01 260.25 C 296.02 260.29 370.04 260.21 444.05 260.29 C 448.42 259.81 453.56 263.09 452.96 267.93 C 453.05 314.64 452.97 361.37 453.00 408.09 C 453.55 412.95 448.58 416.58 444.05 416.03 C 368.02 416.09 291.99 416.05 215.97 416.05 C 212.05 416.47 207.83 414.47 206.59 410.56 C 206.00 406.74 206.42 402.85 206.35 399.00 C 206.33 355.66 206.39 312.31 206.32 268.97 C 205.94 265.16 208.69 261.45 212.37 260.57 M 390.36 275.46 C 380.94 276.93 373.83 286.49 375.09 295.93 C 375.50 302.23 379.74 307.74 385.13 310.75 C 391.40 313.51 399.34 313.27 404.81 308.82 C 413.41 303.34 414.74 290.18 408.62 282.39 C 404.53 276.85 397.06 274.18 390.36 275.46 M 253.08 316.05 C 243.95 332.06 235.74 348.59 226.57 364.59 C 223.58 370.02 220.70 375.77 220.21 382.05 C 219.87 386.98 219.80 391.94 220.25 396.87 C 220.53 399.86 222.97 402.71 226.03 403.03 C 232.98 403.95 240.01 403.58 247.00 403.65 C 304.68 403.66 362.36 403.64 420.04 403.66 C 422.99 403.67 425.92 403.25 428.83 402.76 C 428.75 402.18 428.59 401.02 428.51 400.43 C 395.52 377.72 362.22 355.43 329.07 332.96 C 326.63 331.38 323.24 331.24 320.77 332.81 C 316.54 336.85 315.53 343.26 311.06 347.08 C 307.49 349.76 303.25 346.96 300.34 344.66 C 287.58 334.78 275.17 324.43 262.22 314.79 C 259.55 312.45 254.77 312.63 253.08 316.05 Z" />
</g>
</svg>
